{"glyphs":{":":{"x_min":0,"x_max":188,"ha":188,"o":"m 165 405 q 165 380 146 361 q 128 343 102 343 q 77 343 58 361 q 40 380 40 405 q 40 432 58 450 q 76 468 102 468 q 128 468 146 450 q 165 431 165 405 z m 165 53 q 165 27 146 8 q 128 -10 102 -10 q 76 -10 58 8 q 40 27 40 53 q 40 79 58 97 q 76 115 102 115 q 128 115 147 97 q 165 79 165 53 z"},"$":{"x_min":0,"x_max":385,"ha":385,"o":"m 164 759 l 216 759 l 216 732 q 265 732 308 704 q 351 675 351 625 q 351 596 336 578 q 322 560 297 560 q 278 560 264 572 q 250 583 250 604 q 250 622 265 641 q 273 650 273 656 q 273 666 255 676 q 237 686 216 686 l 216 440 q 366 337 366 201 q 366 128 328 69 q 291 9 216 -8 l 216 -129 l 164 -129 l 164 -8 q 98 -3 59 37 q 20 78 20 126 q 20 155 37 175 q 53 194 81 194 q 106 194 121 178 q 135 162 135 138 q 135 114 116 96 q 106 87 106 81 q 106 52 164 44 l 164 351 q 36 444 36 552 q 36 615 69 664 q 103 713 164 727 z m 164 681 q 107 657 107 591 q 107 534 164 483 z m 216 308 l 216 49 q 247 57 267 88 q 287 119 287 163 q 287 249 216 308 z"},"?":{"x_min":0,"x_max":323,"ha":323,"o":"m 172 226 l 172 201 q 172 191 163 191 l 130 191 q 122 191 122 202 l 122 259 q 122 357 163 495 q 192 592 192 639 q 192 710 147 710 q 134 710 123 704 q 113 698 113 692 q 113 687 120 679 q 136 662 136 642 q 136 620 120 604 q 104 587 80 587 q 54 587 38 604 q 21 622 21 649 q 21 696 58 731 q 95 766 155 766 q 225 766 263 723 q 301 679 301 611 q 301 540 241 436 q 172 316 172 226 z m 208 53 q 208 27 190 8 q 172 -10 146 -10 q 120 -10 101 8 q 83 27 83 53 q 83 79 102 97 q 120 115 146 115 q 172 115 190 97 q 208 79 208 53 z"},"<":{"x_min":0,"x_max":447,"ha":447,"o":"m 37 387 l 411 544 l 411 485 l 116 364 l 411 243 l 411 183 l 37 340 z"},"'":{"x_min":0,"x_max":168,"ha":168,"o":"m 73 447 l 46 591 q 35 652 35 669 q 35 732 83 732 q 104 732 119 718 q 133 704 133 680 q 133 661 121 591 l 94 447 z"},"=":{"x_min":0,"x_max":447,"ha":447,"o":"m 37 465 l 411 465 l 411 411 l 37 411 z m 37 312 l 411 312 l 411 257 l 37 257 z"},"a":{"x_min":0,"x_max":316,"ha":316,"o":"m 184 293 l 184 362 q 184 422 137 422 q 120 422 120 412 q 120 408 123 400 q 129 386 129 376 q 129 357 117 344 q 104 332 83 332 q 60 332 45 346 q 31 360 31 384 q 31 422 66 447 q 100 471 146 471 q 209 471 245 436 q 280 402 280 339 l 280 96 q 280 76 284 65 q 289 55 303 52 q 314 49 314 39 l 314 18 q 314 -8 274 -8 q 221 -8 200 44 q 153 -10 110 -10 q 68 -10 42 24 q 15 59 15 112 q 15 250 184 293 z m 184 244 q 115 218 115 132 q 115 64 150 64 q 166 64 175 79 q 184 95 184 113 z"},"L":{"x_min":0,"x_max":349,"ha":349,"o":"m 47 91 l 47 669 q 47 694 28 707 q 16 715 16 727 l 16 748 q 16 759 28 759 l 181 759 q 191 759 191 749 l 191 727 q 191 715 179 707 q 160 693 160 669 l 160 58 l 202 58 q 238 58 259 81 q 279 104 289 158 q 292 179 294 182 q 296 186 303 186 l 326 186 q 339 186 339 175 l 339 0 l 28 0 q 12 0 12 15 l 12 33 q 12 44 26 53 q 47 65 47 91 z"},"3":{"x_min":0,"x_max":385,"ha":385,"o":"m 218 396 q 353 339 353 198 q 353 104 295 47 q 237 -10 157 -10 q 96 -10 56 22 q 16 55 16 104 q 16 131 32 149 q 48 167 74 167 q 97 167 112 151 q 127 136 127 112 q 127 86 110 69 q 105 64 105 61 q 105 53 119 46 q 133 38 153 38 q 244 38 244 203 q 244 262 231 299 q 218 335 201 348 q 184 362 153 368 q 134 371 134 380 l 134 411 q 134 423 151 424 q 234 429 234 567 q 234 684 165 684 q 146 684 133 677 q 120 670 120 662 q 120 656 126 646 q 137 632 137 616 q 137 596 122 581 q 107 566 87 566 q 63 566 49 583 q 35 600 35 624 q 35 667 77 700 q 119 732 175 732 q 245 732 291 686 q 336 639 336 571 q 336 461 218 396 z"},";":{"x_min":0,"x_max":190,"ha":190,"o":"m 167 405 q 167 380 148 361 q 130 343 104 343 q 78 343 60 361 q 41 379 41 405 q 41 431 60 450 q 78 468 104 468 q 130 468 148 450 q 167 432 167 405 z m 94 -11 q 40 2 40 53 q 40 80 58 98 q 77 116 103 116 q 133 116 151 94 q 168 73 168 46 q 168 -47 49 -142 l 24 -104 q 83 -48 94 -11 z"},"J":{"x_min":0,"x_max":318,"ha":318,"o":"m 162 134 l 162 669 q 162 694 143 707 q 131 715 131 727 l 131 748 q 131 759 143 759 l 296 759 q 306 759 306 749 l 306 727 q 306 715 294 707 q 275 693 275 669 l 275 193 q 275 101 229 47 q 184 -7 116 -7 q 65 -7 36 19 q 6 45 6 81 q 6 104 22 121 q 38 137 64 137 q 85 137 98 125 q 112 114 112 95 q 112 87 109 74 q 107 67 107 63 q 107 44 128 44 q 162 44 162 134 z"},"V":{"x_min":0,"x_max":415,"ha":415,"o":"m 229 316 l 296 656 q 298 664 298 670 q 298 690 276 702 q 259 711 259 723 l 259 747 q 259 759 273 759 l 388 759 q 403 759 403 747 l 403 723 q 403 710 389 704 q 366 691 359 660 l 232 5 q 229 -10 218 -10 l 198 -10 q 187 -10 184 5 l 55 656 q 48 691 24 706 q 12 714 12 726 l 12 748 q 12 759 24 759 l 175 759 q 187 759 187 747 l 187 723 q 187 713 175 706 q 158 695 158 679 q 158 672 160 664 z"},"\"":{"x_min":0,"x_max":384,"ha":384,"o":"m 97 447 l 70 592 q 60 651 60 672 q 60 732 107 732 q 129 732 143 718 q 157 703 157 679 q 157 660 145 591 l 118 447 z m 264 447 l 238 589 q 226 652 226 672 q 226 732 276 732 q 298 732 311 718 q 325 703 325 680 q 325 638 315 590 l 288 447 z"},"7":{"x_min":0,"x_max":385,"ha":385,"o":"m 290 634 l 125 634 q 89 634 82 590 q 80 580 78 576 q 76 573 68 573 l 42 573 q 33 573 33 582 l 38 716 q 39 729 53 729 q 59 729 77 725 q 98 721 113 721 l 341 721 q 353 721 353 711 l 353 657 q 235 395 235 196 q 235 173 237 135 q 240 98 240 82 q 240 -10 177 -10 q 146 -10 131 15 q 117 40 117 74 q 117 161 170 333 q 224 506 290 634 z"},"S":{"x_min":0,"x_max":357,"ha":357,"o":"m 65 0 l 41 0 q 29 0 29 13 l 29 197 q 29 216 42 216 l 63 216 q 71 216 74 210 q 77 205 82 171 q 102 43 173 43 q 210 43 231 76 q 252 108 252 154 q 252 201 230 242 q 207 282 142 351 q 92 404 71 433 q 49 462 36 499 q 23 535 23 579 q 23 660 64 712 q 105 765 164 765 q 190 765 221 750 q 235 743 240 743 q 245 743 250 747 q 256 750 265 750 l 283 750 q 297 750 297 737 l 297 575 q 297 563 287 563 l 264 563 q 255 563 253 568 q 250 572 243 603 q 220 709 168 709 q 141 709 124 686 q 107 662 107 631 q 107 596 127 558 q 146 521 206 460 q 281 383 310 324 q 339 265 339 196 q 339 104 291 45 q 242 -13 175 -13 q 146 -13 105 3 q 93 8 87 8 q 83 8 75 3 q 69 0 65 0 z"},"}":{"x_min":0,"x_max":295,"ha":295,"o":"m 6 759 q 104 757 156 708 q 207 659 207 600 q 207 581 194 523 q 182 468 182 439 q 182 402 205 372 q 229 342 277 335 l 277 305 q 229 298 205 270 q 182 241 182 204 q 182 178 193 127 q 208 58 208 36 q 208 -8 177 -48 q 146 -88 105 -104 q 63 -120 6 -120 l 6 -97 q 101 -79 101 -2 q 101 27 86 95 q 77 137 77 159 q 77 193 97 228 q 117 262 148 282 q 180 303 237 321 q 78 364 78 485 q 78 508 90 566 q 102 620 102 644 q 102 719 6 737 z"},"Z":{"x_min":0,"x_max":350,"ha":350,"o":"m 34 759 l 321 759 q 337 759 337 746 q 337 726 327 692 l 131 58 l 189 58 q 265 58 280 158 q 283 181 286 185 q 290 189 297 189 l 321 189 q 331 189 331 179 l 331 0 l 22 0 q 8 0 8 14 l 8 36 l 215 702 l 154 702 q 119 702 104 685 q 90 668 83 620 q 80 598 77 595 q 75 593 66 593 l 44 593 q 34 593 34 603 z"},"x":{"x_min":0,"x_max":317,"ha":317,"o":"m 119 215 l 39 388 q 29 409 15 419 q 6 425 6 435 l 6 451 q 6 460 16 460 l 135 460 q 148 460 148 450 l 148 429 q 148 423 139 418 q 128 411 128 403 q 128 397 132 388 l 166 313 l 197 383 q 201 391 201 398 q 201 407 185 417 q 173 424 173 429 l 173 450 q 173 460 185 460 l 281 460 q 292 460 292 451 l 292 429 q 292 420 279 416 q 259 408 250 388 l 189 262 l 279 69 q 285 57 300 42 q 311 33 311 25 l 311 10 q 311 0 300 0 l 177 0 q 166 0 166 11 l 166 31 q 166 37 175 42 q 189 48 189 58 q 189 63 187 69 l 143 162 l 108 87 q 102 74 102 63 q 102 53 121 42 q 135 35 135 28 l 135 11 q 135 0 124 0 l 18 0 q 6 0 6 11 l 6 28 q 6 38 19 41 q 40 47 50 69 z"},")":{"x_min":0,"x_max":283,"ha":283,"o":"m 32 773 q 253 594 253 309 q 253 23 32 -156 l 6 -131 q 90 -56 118 53 q 147 163 147 308 q 147 429 130 514 q 114 600 84 652 q 55 704 7 750 z"},"&":{"x_min":0,"x_max":489,"ha":489,"o":"m 144 407 q 112 521 112 586 q 112 659 148 707 q 184 755 247 755 q 302 755 338 716 q 375 677 375 622 q 375 572 344 530 q 314 488 246 432 q 284 302 333 201 q 363 267 363 321 q 363 340 352 350 q 340 361 327 362 q 316 364 316 373 l 316 400 q 316 410 325 410 l 469 410 q 480 410 480 398 l 480 373 q 480 362 463 356 q 443 349 436 336 q 429 323 419 285 q 396 197 366 138 q 407 64 457 64 q 465 64 478 66 l 478 28 q 442 -10 404 -10 q 353 -10 302 52 q 238 -7 177 -7 q 111 -7 70 44 q 29 96 29 176 q 29 232 52 280 q 74 328 144 407 z m 230 493 q 292 562 292 635 q 292 705 248 705 q 207 705 207 638 q 207 585 230 493 z m 163 343 q 123 292 123 241 q 123 185 152 131 q 181 77 221 77 q 247 77 269 102 q 220 171 163 343 z"},"_":{"x_min":0,"x_max":250,"ha":250,"o":"m -6 -75 l 256 -75 l 256 -125 l -6 -125 z"},"v":{"x_min":0,"x_max":312,"ha":312,"o":"m 270 383 l 173 6 q 171 -3 163 -3 l 140 -3 q 131 -3 128 6 l 37 383 q 30 412 14 420 q 6 425 6 435 l 6 450 q 6 460 16 460 l 138 460 q 149 460 149 451 l 149 432 q 149 423 138 417 q 123 408 123 396 q 123 389 124 383 l 173 180 l 221 375 q 222 381 222 387 q 222 409 198 421 q 188 426 188 429 l 188 451 q 188 460 199 460 l 297 460 q 307 460 307 451 l 307 429 q 307 422 297 418 q 277 410 270 383 z"},"O":{"x_min":0,"x_max":453,"ha":453,"o":"m 231 -10 q 129 -10 79 92 q 29 195 29 376 q 29 557 80 663 q 130 770 227 770 q 317 770 370 672 q 423 574 423 382 q 423 186 370 88 q 318 -10 231 -10 z m 226 42 q 248 42 266 71 q 285 99 292 226 q 300 353 300 459 q 300 555 289 616 q 277 678 263 696 q 250 714 228 714 q 210 714 196 700 q 181 687 173 651 q 165 616 159 513 q 153 410 153 299 q 153 161 171 102 q 189 42 226 42 z"},"(":{"x_min":0,"x_max":284,"ha":284,"o":"m 251 -156 q 29 23 29 308 q 29 413 61 506 q 93 599 140 659 q 187 719 251 773 l 276 748 q 193 673 165 563 q 136 454 136 309 q 136 152 167 44 q 198 -63 275 -133 z"},"C":{"x_min":0,"x_max":392,"ha":392,"o":"m 378 186 q 373 95 333 42 q 293 -10 230 -10 q 139 -10 84 89 q 29 188 29 378 q 29 566 83 668 q 136 770 220 770 q 255 770 297 746 q 303 743 306 743 q 309 743 315 749 q 319 754 324 754 l 352 754 q 361 754 361 740 l 361 580 q 361 566 352 566 l 330 566 q 320 566 316 572 q 312 577 306 601 q 276 714 228 714 q 199 714 183 685 q 167 655 159 574 q 151 492 151 409 q 151 226 171 141 q 192 55 243 55 q 305 55 324 191 z"},"W":{"x_min":0,"x_max":597,"ha":597,"o":"m 424 320 l 483 655 q 484 663 484 671 q 484 694 462 704 q 445 712 445 725 l 445 746 q 445 759 460 759 l 569 759 q 585 759 585 744 l 585 725 q 585 715 573 707 q 550 692 545 663 l 427 5 q 424 -10 413 -10 l 392 -10 q 383 -10 380 5 l 300 441 l 221 5 q 218 -10 208 -10 l 187 -10 q 177 -10 174 5 l 49 677 q 45 700 23 708 q 12 711 12 724 l 12 747 q 12 759 26 759 l 168 759 q 178 759 178 751 l 178 722 q 178 714 168 710 q 151 702 151 683 q 151 677 152 668 l 217 320 l 269 609 l 256 677 q 252 698 230 706 q 221 710 221 718 l 221 750 q 221 759 229 759 l 381 759 q 392 759 392 750 l 392 732 q 392 720 389 715 q 387 711 376 705 q 358 696 358 679 q 358 674 359 668 z"},"A":{"x_min":0,"x_max":437,"ha":437,"o":"m 160 663 l 155 696 q 152 712 152 714 q 152 719 160 723 l 242 761 q 244 762 247 762 q 253 762 255 753 l 388 91 q 392 73 397 65 q 402 58 417 49 q 428 42 428 33 l 428 12 q 428 0 418 0 l 255 0 q 242 0 242 12 l 242 33 q 242 44 258 52 q 277 62 277 80 q 277 85 276 91 l 255 193 l 128 193 l 107 95 q 106 89 106 86 q 106 71 128 54 q 142 42 142 33 l 142 12 q 142 0 128 0 l 26 0 q 9 0 9 12 l 9 37 q 9 47 20 54 q 40 66 46 95 z m 193 506 l 142 256 l 242 256 z"},"f":{"x_min":0,"x_max":192,"ha":192,"o":"m 138 409 l 138 78 q 138 52 159 42 q 168 37 168 27 l 168 9 q 168 0 157 0 l 22 0 q 12 0 12 9 l 12 27 q 12 37 21 42 q 42 52 42 78 l 42 409 l 16 409 q 8 409 8 416 l 8 439 q 8 447 19 453 q 32 460 37 472 q 41 484 43 525 q 48 642 91 706 q 134 770 191 770 q 216 770 233 754 q 250 739 250 716 q 250 697 238 683 q 226 668 204 668 q 178 668 167 695 q 163 707 158 707 q 138 707 138 617 l 138 460 l 175 460 q 187 460 187 450 l 187 417 q 187 409 176 409 z"},"Q":{"x_min":0,"x_max":453,"ha":453,"o":"m 180 -5 q 29 52 29 375 q 29 562 80 666 q 130 770 225 770 q 321 770 372 667 q 423 564 423 381 q 423 283 409 210 q 395 137 372 90 q 349 43 320 21 q 292 0 253 -10 q 297 -24 339 -52 q 368 -71 390 -71 q 394 -71 403 -70 q 408 -70 409 -70 q 415 -70 415 -75 l 415 -97 q 415 -110 392 -122 q 369 -134 342 -134 q 295 -134 248 -78 q 199 -21 180 -5 z m 226 42 q 248 42 266 71 q 285 99 292 226 q 300 353 300 459 q 300 555 289 616 q 277 678 263 696 q 250 714 228 714 q 210 714 196 700 q 181 687 173 651 q 165 616 159 513 q 153 410 153 299 q 153 161 171 102 q 189 42 226 42 z"},"w":{"x_min":0,"x_max":471,"ha":471,"o":"m 338 190 l 377 357 q 381 371 381 382 q 381 402 360 416 q 347 424 347 431 l 347 449 q 347 460 359 460 l 453 460 q 465 460 465 450 l 465 431 q 465 423 457 419 q 437 410 427 369 l 338 -4 l 301 -4 l 233 273 l 169 -4 l 130 -4 l 42 375 q 35 406 16 418 q 6 424 6 434 l 6 453 q 6 460 15 460 l 137 460 q 149 460 149 450 l 149 431 q 149 423 139 416 q 125 406 125 394 q 125 388 126 381 l 169 196 l 228 460 l 272 460 z"},"-":{"x_min":0,"x_max":232,"ha":232,"o":"m 22 273 l 210 273 l 210 183 l 22 183 z"},"E":{"x_min":0,"x_max":373,"ha":373,"o":"m 363 0 l 28 0 q 17 0 17 12 l 17 33 q 17 43 33 56 q 47 67 47 91 l 47 669 q 47 694 29 707 q 17 715 17 727 l 17 750 q 17 759 28 759 l 279 759 q 286 759 305 761 q 322 762 327 762 q 343 762 343 753 l 343 610 q 343 599 341 596 q 338 594 328 594 l 310 594 q 298 594 297 608 q 292 646 278 673 q 264 700 222 700 l 160 700 l 160 424 l 183 424 q 204 424 211 432 q 219 440 231 482 q 235 496 236 498 q 238 499 245 499 l 267 499 q 279 499 279 487 l 279 303 q 279 291 268 291 l 245 291 q 238 291 235 295 q 232 298 227 317 q 218 352 208 360 q 198 367 180 367 l 160 367 l 160 58 l 226 58 q 263 58 277 75 q 291 93 312 170 q 317 188 330 188 l 351 188 q 363 188 363 176 z"},"s":{"x_min":0,"x_max":291,"ha":291,"o":"m 155 471 q 203 471 234 447 q 265 423 265 386 q 265 365 250 350 q 236 335 213 335 q 194 335 180 346 q 166 357 166 377 q 166 386 170 396 q 173 403 173 406 q 173 423 147 423 q 128 423 114 410 q 100 396 100 373 q 100 352 113 334 q 126 315 182 275 q 236 236 258 203 q 279 170 279 128 q 279 62 237 26 q 194 -10 136 -10 q 80 -10 46 16 q 11 43 11 84 q 11 106 25 123 q 39 139 64 139 q 111 139 111 95 q 111 87 108 76 q 105 65 105 61 q 105 37 140 37 q 166 37 183 53 q 200 69 200 90 q 200 113 185 133 q 170 152 126 185 q 68 230 44 262 q 20 295 20 340 q 20 398 61 435 q 102 471 155 471 z"},">":{"x_min":0,"x_max":447,"ha":447,"o":"m 411 340 l 37 183 l 37 243 l 332 364 l 37 485 l 37 544 l 411 387 z"},"l":{"x_min":0,"x_max":172,"ha":172,"o":"m 135 759 l 135 78 q 135 52 156 42 q 165 37 165 27 l 165 9 q 165 0 154 0 l 19 0 q 8 0 8 9 l 8 27 q 8 37 18 42 q 38 52 38 78 l 38 679 q 38 705 17 716 q 8 720 8 729 l 8 747 q 8 755 19 755 z"},"8":{"x_min":0,"x_max":385,"ha":385,"o":"m 132 361 q 80 418 60 463 q 41 508 41 558 q 41 632 81 682 q 122 732 188 732 q 252 732 294 687 q 335 642 335 583 q 335 501 240 412 q 363 312 363 185 q 363 99 317 44 q 271 -10 193 -10 q 118 -10 70 42 q 22 94 22 165 q 22 267 132 361 z m 212 440 q 268 512 268 576 q 268 622 244 653 q 221 684 188 684 q 157 684 137 661 q 117 637 117 601 q 117 519 212 440 z m 162 335 q 99 250 99 166 q 99 109 126 74 q 153 39 196 39 q 233 39 257 68 q 281 97 281 140 q 281 234 162 335 z"},"\\":{"x_min":0,"x_max":295,"ha":295,"o":"m 58 770 l 288 -10 l 232 -10 l 0 770 z"},"e":{"x_min":0,"x_max":314,"ha":314,"o":"m 291 119 q 279 -10 174 -10 q 104 -10 63 49 q 22 108 22 226 q 22 340 61 405 q 100 471 165 471 q 223 471 259 420 q 294 369 294 286 l 294 245 q 294 233 282 233 l 130 233 l 130 193 q 130 127 143 92 q 155 57 187 57 q 224 57 238 128 z m 201 287 l 201 354 q 201 424 165 424 q 130 424 130 334 l 130 287 z"},"b":{"x_min":0,"x_max":341,"ha":341,"o":"m 35 -8 l 35 682 q 35 706 20 718 q 13 724 13 729 l 13 750 q 13 758 23 758 l 132 759 l 132 437 q 169 468 204 468 q 319 468 319 247 q 319 126 284 58 q 250 -10 186 -10 q 158 -10 120 9 q 100 20 92 20 q 77 20 48 -8 z m 132 393 l 132 52 q 148 45 161 45 q 192 45 203 82 q 214 118 214 260 q 214 346 202 375 q 190 403 163 403 q 145 403 132 393 z"},"%":{"x_min":0,"x_max":604,"ha":604,"o":"m 142 377 q 81 377 51 431 q 22 484 22 574 q 22 665 51 717 q 80 770 139 770 q 197 770 226 717 q 254 665 254 572 q 254 473 222 425 q 190 377 142 377 z m 169 629 q 169 697 162 717 q 155 738 138 738 q 121 738 113 716 q 105 695 105 635 l 105 531 q 105 470 112 439 q 118 408 140 408 q 155 408 162 431 q 169 454 169 531 z m 435 768 l 490 768 l 170 -18 l 115 -18 z m 469 -5 q 408 -5 379 49 q 350 102 350 192 q 350 289 380 338 q 411 387 467 387 q 524 387 553 335 q 583 282 583 190 q 583 91 550 43 q 518 -5 469 -5 z m 497 247 q 497 311 490 333 q 484 356 466 356 q 448 356 441 334 q 434 313 434 253 l 434 149 q 434 88 440 57 q 446 26 467 26 q 485 26 491 53 q 497 80 497 149 z"},"m":{"x_min":0,"x_max":511,"ha":511,"o":"m 137 376 l 137 79 q 137 60 151 44 q 158 37 158 33 l 158 12 q 158 0 146 0 l 32 0 q 21 0 21 9 l 21 33 q 21 40 29 46 q 41 57 41 73 l 41 379 q 41 402 25 416 q 17 423 17 429 l 17 450 q 17 460 32 460 l 137 463 l 137 425 q 183 467 229 467 q 274 467 298 418 q 353 467 396 467 q 435 467 455 439 q 476 411 476 364 l 476 73 q 476 55 489 43 q 496 37 496 33 l 496 12 q 496 0 485 0 l 371 0 q 361 0 361 10 l 361 33 q 361 39 367 45 q 379 57 379 79 l 379 360 q 379 400 350 400 q 334 400 307 376 l 307 79 q 307 56 323 42 q 329 36 329 33 l 329 13 q 329 0 316 0 l 202 0 q 192 0 192 10 l 192 33 q 192 39 198 45 q 210 57 210 79 l 210 354 q 210 400 180 400 q 163 400 137 376 z"},"#":{"x_min":0,"x_max":447,"ha":447,"o":"m 181 529 l 310 529 l 336 742 l 389 742 l 362 529 l 428 529 l 428 478 l 355 478 l 328 265 l 430 265 l 430 213 l 321 213 l 293 0 l 242 0 l 269 213 l 140 213 l 113 0 l 61 0 l 88 213 l 22 213 l 22 265 l 95 265 l 122 478 l 20 478 l 20 529 l 129 529 l 157 742 l 208 742 z m 174 478 l 147 265 l 276 265 l 303 478 z"},",":{"x_min":0,"x_max":173,"ha":173,"o":"m 77 -11 q 22 2 22 53 q 22 80 41 98 q 59 116 85 116 q 116 116 133 94 q 151 73 151 46 q 151 -47 32 -142 l 6 -104 q 65 -48 77 -11 z"},"n":{"x_min":0,"x_max":341,"ha":341,"o":"m 40 76 l 40 380 q 40 407 19 417 q 10 421 10 430 l 10 448 q 10 457 21 457 l 137 460 l 137 420 q 178 465 228 465 q 264 465 285 437 q 306 408 306 363 l 306 70 q 306 55 319 39 q 325 31 325 28 l 325 8 q 325 0 318 0 l 199 0 q 190 0 190 8 l 190 33 q 190 37 196 41 q 209 51 209 65 l 209 363 q 209 398 184 398 q 159 398 137 369 l 137 70 q 137 54 148 42 q 153 36 153 33 l 153 6 q 153 0 146 0 l 25 0 q 18 0 18 7 l 18 33 q 18 37 24 42 q 40 54 40 76 z"},"h":{"x_min":0,"x_max":341,"ha":341,"o":"m 137 375 l 137 70 q 137 54 148 42 q 153 36 153 33 l 153 6 q 153 0 146 0 l 25 0 q 18 0 18 7 l 18 33 q 18 37 24 42 q 40 54 40 76 l 40 673 q 40 700 19 710 q 10 714 10 723 l 10 747 q 10 755 21 755 l 137 759 l 137 426 q 183 467 227 467 q 307 467 307 371 l 307 70 q 307 55 319 39 q 326 31 326 28 l 326 8 q 326 0 318 0 l 199 0 q 191 0 191 8 l 191 33 q 191 37 197 41 q 210 51 210 65 l 210 367 q 210 402 181 402 q 158 402 137 375 z"},"z":{"x_min":0,"x_max":281,"ha":281,"o":"m 60 333 l 34 333 q 27 333 27 339 l 27 449 q 27 460 38 460 l 253 460 q 270 460 270 447 l 270 416 l 105 43 l 136 43 q 197 43 211 73 q 226 102 229 124 q 229 132 237 132 l 259 132 q 270 132 270 123 l 270 0 l 21 0 q 9 0 9 12 l 9 53 l 172 416 l 136 416 q 81 416 72 353 q 69 333 60 333 z"},"B":{"x_min":0,"x_max":413,"ha":413,"o":"m 243 388 q 391 341 391 201 q 391 140 362 92 q 333 44 280 22 q 227 0 174 0 l 24 0 q 16 0 16 9 l 16 33 q 16 43 28 53 q 47 66 47 91 l 47 669 q 47 695 28 707 q 16 715 16 727 l 16 749 q 16 759 28 759 l 184 759 q 271 759 323 708 q 376 656 376 575 q 376 517 346 467 q 316 416 243 388 z m 160 699 l 160 416 q 264 416 264 558 q 264 610 250 644 q 236 678 215 689 q 195 699 160 699 z m 160 360 l 160 58 q 201 59 225 72 q 250 85 262 117 q 275 149 275 204 q 275 282 248 321 q 222 359 160 360 z"},"K":{"x_min":0,"x_max":433,"ha":433,"o":"m 160 461 l 261 669 q 267 681 267 691 q 267 699 254 708 q 242 716 242 727 l 242 746 q 242 759 254 759 l 398 759 q 414 759 414 746 l 414 727 q 414 717 410 714 q 406 710 393 703 q 342 679 318 630 l 242 477 l 364 120 q 377 80 411 55 q 428 43 428 30 l 428 14 q 428 0 413 0 l 250 0 q 235 0 235 15 l 235 30 q 235 42 245 51 q 264 65 264 75 q 264 82 261 90 l 160 381 l 160 91 q 160 66 179 53 q 191 44 191 33 l 191 11 q 191 0 179 0 l 26 0 q 16 0 16 10 l 16 33 q 16 44 28 53 q 47 65 47 91 l 47 669 q 47 694 28 707 q 16 715 16 727 l 16 748 q 16 759 28 759 l 181 759 q 191 759 191 749 l 191 727 q 191 715 179 707 q 160 694 160 669 z"},"R":{"x_min":0,"x_max":416,"ha":416,"o":"m 160 355 l 160 91 q 160 65 179 53 q 191 44 191 33 l 191 11 q 191 0 179 0 l 26 0 q 16 0 16 10 l 16 33 q 16 44 28 53 q 47 66 47 91 l 47 669 q 47 694 28 707 q 16 715 16 727 l 16 748 q 16 759 28 759 l 156 759 q 265 759 321 710 q 378 662 378 569 q 378 422 242 379 q 282 360 302 335 q 323 311 334 263 l 370 108 q 377 78 384 68 q 390 57 405 48 q 410 45 410 39 l 410 11 q 410 0 399 0 l 301 0 q 287 0 283 16 l 217 284 q 206 329 193 342 q 180 355 160 355 z m 160 700 l 160 414 q 213 414 238 447 q 263 480 263 565 q 263 648 238 674 q 212 700 160 700 z"},"T":{"x_min":0,"x_max":385,"ha":385,"o":"m 249 703 l 249 91 q 249 65 267 53 q 280 44 280 33 l 280 11 q 280 0 267 0 l 115 0 q 104 0 104 10 l 104 33 q 104 44 117 53 q 135 66 135 91 l 135 703 l 114 703 q 90 703 78 685 q 67 667 58 605 q 57 597 47 597 l 28 597 q 12 597 12 611 l 12 753 q 12 770 27 770 q 37 770 62 766 q 102 759 123 759 l 295 759 q 309 761 328 765 q 357 769 360 769 q 373 769 373 757 l 373 611 q 373 597 360 597 l 342 597 q 331 597 328 603 q 326 609 321 635 q 312 677 303 690 q 294 703 271 703 z"},"P":{"x_min":0,"x_max":405,"ha":405,"o":"m 160 349 l 160 91 q 160 65 179 53 q 191 44 191 33 l 191 11 q 191 0 179 0 l 26 0 q 16 0 16 10 l 16 33 q 16 44 28 53 q 47 66 47 91 l 47 669 q 47 694 28 707 q 16 715 16 727 l 16 748 q 16 759 28 759 l 160 759 q 268 759 326 703 q 385 647 385 555 q 385 349 160 349 z m 160 701 l 160 407 q 204 407 224 417 q 245 427 257 457 q 269 487 269 550 q 269 612 258 643 q 247 674 224 687 q 202 700 160 701 z"},"|":{"x_min":0,"x_max":251,"ha":251,"o":"m 98 770 l 153 770 l 153 -151 l 98 -151 z"},"t":{"x_min":0,"x_max":205,"ha":205,"o":"m 35 408 l 18 408 q 7 408 7 417 l 7 442 q 7 452 18 460 q 32 471 36 484 q 40 497 40 526 l 40 606 q 40 618 55 620 l 115 626 q 123 627 125 627 q 132 627 132 615 l 132 460 l 182 460 q 196 460 196 449 l 196 419 q 196 408 185 408 l 132 408 l 132 111 q 132 62 162 62 q 168 62 176 64 q 182 66 185 66 q 193 66 196 59 l 203 36 q 205 33 205 31 q 205 21 172 5 q 140 -10 112 -10 q 35 -10 35 85 z"},"M":{"x_min":0,"x_max":520,"ha":520,"o":"m 47 91 l 47 669 q 47 694 28 707 q 16 715 16 727 l 16 748 q 16 759 28 759 l 205 759 l 260 403 l 315 759 l 493 759 q 504 759 504 749 l 504 727 q 504 715 491 707 q 473 693 473 669 l 473 91 q 473 65 492 53 q 504 44 504 33 l 504 11 q 504 0 491 0 l 344 0 q 334 0 334 10 l 334 33 q 334 44 346 53 q 365 66 365 91 l 365 683 l 260 0 l 221 0 l 117 683 l 117 91 q 117 65 135 53 q 148 44 148 33 l 148 11 q 148 0 135 0 l 26 0 q 16 0 16 10 l 16 33 q 16 44 28 53 q 47 66 47 91 z"},"g":{"x_min":0,"x_max":331,"ha":331,"o":"m 220 451 q 254 485 281 485 q 298 485 311 475 q 323 465 323 449 q 323 420 294 420 q 285 420 273 427 q 264 432 260 432 q 252 432 245 427 q 281 377 281 316 q 281 240 248 195 q 214 150 155 150 q 139 150 116 154 l 91 92 l 136 92 q 304 92 304 -23 q 304 -83 259 -117 q 214 -151 142 -151 q 84 -151 52 -131 q 19 -111 19 -77 q 19 -57 31 -44 q 44 -31 64 -31 q 83 -31 96 -42 q 109 -54 109 -71 q 109 -81 103 -94 q 126 -105 151 -105 q 183 -105 205 -89 q 228 -72 228 -48 q 228 5 112 5 q 88 5 55 3 q 38 2 30 2 q 14 2 14 12 q 14 19 21 38 l 76 173 q 21 220 21 310 q 21 379 53 425 q 85 471 151 471 q 190 471 220 451 z m 150 194 q 171 194 179 217 q 187 240 187 305 q 187 380 179 404 q 171 427 152 427 q 128 427 122 392 q 115 357 115 286 q 115 236 123 215 q 131 194 150 194 z"},"j":{"x_min":0,"x_max":170,"ha":170,"o":"m 81 719 q 107 719 124 701 q 141 684 141 660 q 141 636 124 619 q 106 602 83 602 q 59 602 41 619 q 24 636 24 660 q 24 686 42 702 q 60 719 81 719 z m 39 -27 l 39 380 q 39 407 18 417 q 9 421 9 430 l 9 448 q 9 457 20 457 l 135 460 l 135 46 q 135 -44 95 -100 q 55 -156 -9 -156 q -39 -156 -56 -143 q -72 -130 -72 -109 q -72 -91 -59 -79 q -45 -67 -27 -67 q -9 -67 2 -78 q 13 -88 13 -102 q 13 -107 11 -117 q 39 -107 39 -27 z"},"i":{"x_min":0,"x_max":174,"ha":174,"o":"m 86 719 q 111 719 128 702 q 146 685 146 660 q 146 636 128 619 q 111 602 87 602 q 63 602 46 619 q 29 636 29 660 q 29 686 47 702 q 64 719 86 719 z m 137 460 l 137 78 q 137 52 158 42 q 167 37 167 27 l 167 9 q 167 0 156 0 l 21 0 q 10 0 10 9 l 10 27 q 10 37 20 42 q 40 52 40 78 l 40 380 q 40 406 19 417 q 10 422 10 430 l 10 448 q 10 457 21 457 z"},"y":{"x_min":0,"x_max":315,"ha":315,"o":"m 130 3 l 41 376 q 34 402 14 417 q 6 423 6 428 l 6 452 q 6 460 16 460 l 145 460 q 153 460 153 453 l 153 428 q 153 421 145 418 q 127 412 127 392 q 127 381 130 367 l 174 181 l 218 361 q 221 373 221 380 q 221 397 200 414 q 188 423 188 428 l 188 452 q 188 460 196 460 l 301 460 q 310 460 310 452 l 310 428 q 310 422 300 417 q 276 402 268 367 l 188 34 q 167 -54 153 -83 q 140 -113 115 -131 q 90 -149 60 -149 q 33 -149 17 -136 q 1 -123 1 -101 q 1 -79 16 -68 q 30 -58 48 -58 q 67 -58 101 -81 q 121 -48 130 3 z"},"@":{"x_min":0,"x_max":602,"ha":602,"o":"m 337 254 q 302 196 246 196 q 163 196 163 308 q 163 406 214 475 q 266 543 375 543 q 415 543 424 538 q 434 534 434 518 q 434 510 433 493 l 419 308 q 418 287 418 281 q 418 254 437 254 q 472 254 485 331 q 498 407 498 473 q 498 579 465 627 q 431 675 359 675 q 276 675 222 635 q 168 594 140 495 q 111 396 111 271 q 111 47 266 47 q 337 47 416 101 q 427 109 433 109 q 443 109 453 94 q 462 78 462 71 q 462 59 445 48 q 428 38 375 14 q 322 -10 254 -10 q 29 -10 29 291 q 29 496 110 614 q 191 732 361 732 q 572 732 572 476 q 572 340 526 268 q 479 195 407 195 q 345 195 337 254 z m 339 482 q 335 483 332 483 q 298 483 281 436 q 263 389 263 321 q 263 265 290 265 q 303 265 314 279 q 326 293 330 352 z"},".":{"x_min":0,"x_max":169,"ha":169,"o":"m 147 53 q 147 27 129 8 q 110 -10 84 -10 q 59 -10 40 8 q 22 27 22 53 q 22 79 40 97 q 59 115 84 115 q 111 115 129 97 q 147 79 147 53 z"},"p":{"x_min":0,"x_max":345,"ha":345,"o":"m 38 -77 l 38 381 q 38 408 17 418 q 8 422 8 431 l 8 449 q 8 458 19 458 l 132 461 l 132 415 q 171 465 214 465 q 267 465 295 404 q 323 342 323 242 q 323 170 310 108 q 297 46 276 18 q 254 -10 218 -10 q 171 -10 135 28 l 135 -83 q 135 -105 148 -116 q 156 -121 156 -127 l 156 -153 q 156 -160 150 -160 l 20 -160 q 12 -160 12 -153 l 12 -127 q 12 -122 20 -117 q 38 -105 38 -77 z m 135 383 l 135 77 q 157 53 174 53 q 199 53 209 90 q 219 127 219 239 q 219 340 208 371 q 196 403 173 403 q 155 403 135 383 z"},"X":{"x_min":0,"x_max":436,"ha":436,"o":"m 167 372 l 56 676 q 49 695 33 705 q 22 712 22 722 l 22 746 q 22 759 35 759 l 177 759 q 191 759 191 744 l 191 722 q 191 712 178 704 q 166 697 166 689 q 166 687 167 685 l 226 518 l 288 670 q 291 678 291 685 q 291 694 277 702 q 262 711 262 725 l 262 747 q 262 759 276 759 l 390 759 q 405 759 405 746 l 405 723 q 405 710 391 706 q 364 698 353 670 l 257 431 l 378 94 q 388 67 410 54 q 424 45 424 34 l 424 10 q 424 0 415 0 l 256 0 q 242 0 242 13 l 242 31 q 242 44 255 54 q 270 65 270 76 q 270 87 265 100 l 199 285 l 124 100 q 120 90 120 81 q 120 65 141 56 q 157 48 157 35 l 157 13 q 157 0 144 0 l 26 0 q 12 0 12 12 l 12 33 q 12 45 22 51 q 45 65 56 94 z"},"*":{"x_min":0,"x_max":411,"ha":411,"o":"m 179 583 q 101 620 37 634 q 25 637 25 641 q 25 643 26 646 l 62 706 q 64 709 69 709 q 75 709 82 702 q 132 646 193 607 q 187 691 166 754 q 164 759 164 762 q 164 767 171 767 l 238 767 q 247 767 247 761 q 247 758 244 749 q 224 682 220 607 q 279 646 326 696 q 339 709 342 709 q 345 709 347 706 l 383 643 q 385 640 385 638 q 385 634 360 628 q 294 613 232 583 q 298 549 371 533 q 386 530 386 525 q 386 524 383 519 l 347 457 q 346 454 343 454 q 340 454 335 459 q 279 519 220 558 q 223 490 245 417 q 249 405 249 404 q 249 398 241 398 l 169 398 q 161 398 161 405 q 161 407 165 421 q 188 496 193 561 q 122 515 86 475 q 71 457 67 457 q 63 457 62 460 l 26 524 q 25 526 25 528 q 25 532 35 534 q 100 546 179 583 z"},"Y":{"x_min":0,"x_max":411,"ha":411,"o":"m 257 338 l 257 91 q 257 65 276 53 q 289 44 289 33 l 289 11 q 289 0 276 0 l 124 0 q 113 0 113 10 l 113 33 q 113 44 125 53 q 144 66 144 91 l 144 338 l 46 669 q 37 698 17 708 q 6 712 6 724 l 6 749 q 6 759 15 759 l 173 759 q 187 759 187 747 l 187 723 q 187 714 173 709 q 151 702 151 687 q 151 682 153 676 l 225 439 l 289 656 q 292 668 292 680 q 292 698 270 708 q 257 713 257 722 l 257 748 q 257 759 269 759 l 391 759 q 405 759 405 749 l 405 723 q 405 712 391 706 q 363 692 354 665 z"},"c":{"x_min":0,"x_max":305,"ha":305,"o":"m 293 144 q 285 -10 173 -10 q 107 -10 64 48 q 22 106 22 226 q 22 351 67 411 q 112 471 181 471 q 227 471 259 443 q 290 416 290 375 q 290 349 275 333 q 261 318 239 318 q 219 318 207 331 q 194 343 194 362 q 194 378 207 396 q 212 404 212 408 q 212 424 186 424 q 130 424 130 312 l 130 199 q 130 56 189 56 q 234 56 241 149 z"},"!":{"x_min":0,"x_max":188,"ha":188,"o":"m 124 202 q 123 190 114 190 l 84 190 q 74 190 74 202 q 72 378 46 591 q 38 660 38 682 q 38 765 99 765 q 161 765 161 685 q 161 654 151 574 q 129 400 126 292 z m 160 53 q 160 27 142 8 q 123 -10 97 -10 q 71 -10 53 8 q 35 27 35 53 q 35 79 53 97 q 71 115 97 115 q 124 115 142 97 q 160 79 160 53 z"},"/":{"x_min":0,"x_max":295,"ha":295,"o":"m 238 770 l 295 770 l 63 -10 l 8 -10 z"},"[":{"x_min":0,"x_max":244,"ha":244,"o":"m 55 759 l 223 759 q 231 759 231 752 l 231 729 q 231 723 223 723 l 190 723 q 169 723 161 717 q 152 710 152 691 l 152 -61 q 152 -83 161 -92 q 171 -102 196 -102 l 222 -102 q 231 -102 231 -110 l 231 -132 q 231 -141 222 -141 l 55 -141 z"},"6":{"x_min":0,"x_max":385,"ha":385,"o":"m 139 395 q 184 450 238 450 q 293 450 328 398 q 362 346 362 241 q 362 121 318 55 q 274 -10 199 -10 q 29 -10 29 318 q 29 518 88 624 q 147 729 240 729 q 285 729 318 703 q 351 677 351 642 q 351 619 336 601 q 320 583 295 583 q 270 583 255 599 q 241 615 241 639 q 241 650 246 663 q 249 669 249 672 q 249 680 238 680 q 189 680 165 611 q 142 542 139 395 z m 139 330 l 139 246 q 139 121 152 78 q 166 36 195 36 q 227 36 238 78 q 250 121 250 262 q 250 324 238 348 q 227 373 203 373 q 167 373 139 330 z"},"r":{"x_min":0,"x_max":265,"ha":265,"o":"m 118 362 q 150 467 208 467 q 232 467 245 451 q 259 435 259 413 q 259 391 246 375 q 233 360 213 360 q 190 360 172 382 q 137 326 137 248 l 137 82 q 137 60 155 42 q 163 35 163 32 l 163 7 q 163 0 157 0 l 23 0 q 18 0 18 5 l 18 35 q 18 40 24 42 q 40 50 40 70 l 40 372 q 40 397 24 414 q 18 421 18 425 l 18 449 q 18 458 31 459 l 118 460 z"},"2":{"x_min":0,"x_max":385,"ha":385,"o":"m 356 0 l 36 0 q 18 0 18 18 q 18 75 43 120 l 147 304 q 192 383 218 446 q 244 510 244 571 q 244 620 224 651 q 205 682 172 682 q 147 682 130 668 q 113 654 113 645 q 113 641 123 633 q 150 613 150 584 q 150 562 135 545 q 120 528 94 528 q 65 528 49 547 q 32 566 32 597 q 32 653 75 693 q 117 732 186 732 q 262 732 307 687 q 353 641 353 561 q 353 492 319 428 q 285 363 192 244 q 113 141 95 89 l 260 89 q 281 89 290 97 q 300 104 305 125 q 310 145 323 145 l 344 145 q 356 145 356 134 z"},"{":{"x_min":0,"x_max":295,"ha":295,"o":"m 289 759 l 289 737 q 194 719 194 644 q 194 620 205 566 q 217 508 217 485 q 217 364 58 321 q 149 294 184 249 q 218 203 218 159 q 218 137 209 95 q 194 27 194 -2 q 194 -79 289 -97 l 289 -120 q 232 -120 191 -104 q 149 -88 118 -48 q 87 -8 87 36 q 87 58 103 127 q 113 179 113 205 q 113 247 88 272 q 62 298 18 305 l 18 335 q 66 342 90 372 q 114 402 114 439 q 114 468 101 523 q 88 581 88 600 q 88 665 142 710 q 196 756 289 759 z"},"9":{"x_min":0,"x_max":385,"ha":385,"o":"m 247 321 q 205 265 151 265 q 96 265 60 322 q 23 378 23 477 q 23 592 69 662 q 115 732 187 732 q 261 732 308 654 q 355 576 355 392 q 355 193 300 92 q 244 -10 149 -10 q 101 -10 69 15 q 38 40 38 78 q 38 101 54 119 q 70 136 94 136 q 144 136 144 83 q 144 69 138 57 q 135 50 135 47 q 135 38 152 38 q 194 38 220 97 q 247 156 247 261 z m 247 379 l 247 457 q 247 592 232 638 q 217 684 188 684 q 159 684 146 647 q 133 610 133 521 l 133 442 q 133 347 188 347 q 218 347 247 379 z"}," ":{"x_min":0,"x_max":174,"ha":174,"o":""},"I":{"x_min":0,"x_max":208,"ha":208,"o":"m 160 91 q 160 65 179 53 q 191 44 191 33 l 191 11 q 191 0 179 0 l 26 0 q 16 0 16 10 l 16 33 q 16 44 28 53 q 47 66 47 91 l 47 669 q 47 694 28 707 q 16 715 16 727 l 16 748 q 16 759 28 759 l 181 759 q 191 759 191 749 l 191 727 q 191 715 179 707 q 160 693 160 669 z"},"H":{"x_min":0,"x_max":433,"ha":433,"o":"m 386 669 l 386 91 q 386 65 405 53 q 417 44 417 33 l 417 11 q 417 0 405 0 l 252 0 q 242 0 242 10 l 242 33 q 242 44 254 53 q 273 66 273 91 l 273 371 l 160 371 l 160 91 q 160 65 179 53 q 191 44 191 33 l 191 11 q 191 0 179 0 l 26 0 q 16 0 16 10 l 16 33 q 16 44 28 53 q 47 66 47 91 l 47 669 q 47 694 28 707 q 16 715 16 727 l 16 748 q 16 759 28 759 l 181 759 q 191 759 191 749 l 191 727 q 191 715 179 707 q 160 693 160 669 l 160 439 l 273 439 l 273 669 q 273 694 254 707 q 241 715 241 727 l 241 748 q 241 759 254 759 l 406 759 q 417 759 417 749 l 417 727 q 417 715 405 707 q 386 693 386 669 z"},"4":{"x_min":0,"x_max":385,"ha":385,"o":"m 205 166 l 33 166 q 17 166 17 181 l 17 198 q 17 217 27 241 l 232 720 q 235 729 246 729 l 300 729 q 308 729 308 723 l 308 221 l 359 221 q 369 221 369 214 l 369 174 q 369 166 362 166 l 308 166 l 308 81 q 308 54 334 46 q 345 43 345 35 l 345 9 q 345 0 336 0 l 174 0 q 166 0 166 7 l 166 37 q 166 44 175 47 q 205 57 205 91 z m 205 523 l 75 221 l 205 221 z"},"~":{"x_min":0,"x_max":447,"ha":447,"o":"m 382 420 l 412 420 q 412 366 385 336 q 358 306 318 306 q 299 306 278 312 q 257 318 190 346 q 141 366 121 366 q 74 366 65 306 l 36 306 q 37 367 65 394 q 92 420 127 420 q 162 420 257 380 q 306 359 328 359 q 376 359 382 420 z"},"D":{"x_min":0,"x_max":439,"ha":439,"o":"m 17 727 l 17 752 q 17 759 28 759 l 155 759 q 263 759 336 672 q 410 584 410 387 q 410 286 388 193 q 366 101 317 50 q 268 0 151 0 l 26 0 q 17 0 17 8 l 17 33 q 17 44 29 53 q 47 66 47 91 l 47 669 q 47 694 31 705 q 17 715 17 727 z m 160 701 l 160 57 q 209 57 236 80 q 263 104 275 183 q 287 262 287 364 q 287 475 278 540 q 269 605 255 638 q 241 671 220 685 q 200 698 160 701 z"},"^":{"x_min":0,"x_max":344,"ha":344,"o":"m 192 759 l 341 509 l 286 509 l 172 700 l 59 509 l 3 509 l 153 759 z"},"0":{"x_min":0,"x_max":386,"ha":386,"o":"m 190 732 q 272 732 315 638 q 358 543 358 360 q 358 175 314 82 q 271 -10 195 -10 q 122 -10 75 81 q 28 172 28 349 q 28 544 73 638 q 119 732 190 732 z m 250 504 q 250 682 193 682 q 160 682 148 627 q 137 572 137 490 l 137 203 q 137 38 193 38 q 223 38 237 81 q 250 125 250 252 z"},"F":{"x_min":0,"x_max":357,"ha":357,"o":"m 160 700 l 160 414 l 192 414 q 211 414 219 422 q 227 431 234 457 q 240 476 242 478 q 245 481 254 481 l 275 481 q 288 481 288 469 l 288 301 q 288 289 278 289 l 254 289 q 246 289 243 292 q 240 295 236 309 q 227 342 216 349 q 205 356 192 356 l 160 356 l 160 91 q 160 65 179 53 q 191 44 191 33 l 191 11 q 191 0 179 0 l 26 0 q 16 0 16 10 l 16 33 q 16 44 28 53 q 47 66 47 91 l 47 669 q 47 694 27 707 q 14 715 14 727 l 14 749 q 14 759 25 759 l 278 759 q 289 759 313 761 q 327 763 329 763 q 341 763 343 760 q 346 757 346 747 l 346 602 q 346 589 332 589 l 312 589 q 304 589 301 593 q 298 596 295 617 q 287 666 268 683 q 249 700 211 700 z"},"`":{"x_min":0,"x_max":333,"ha":333,"o":"m 53 696 l 163 696 l 234 544 l 184 544 z"},"k":{"x_min":0,"x_max":352,"ha":352,"o":"m 135 75 q 135 52 156 42 q 165 37 165 27 l 165 9 q 165 0 154 0 l 19 0 q 8 0 8 9 l 8 27 q 8 37 18 42 q 38 52 38 76 l 38 679 q 38 706 17 716 q 8 720 8 729 l 8 747 q 8 755 19 755 l 135 759 l 135 236 l 208 356 q 222 379 222 395 q 222 410 203 416 q 191 420 191 428 l 191 451 q 191 460 201 460 l 323 460 q 336 460 336 449 l 336 427 q 336 418 320 414 q 287 405 270 378 l 231 320 l 313 81 q 324 50 339 40 q 346 36 346 30 l 346 12 q 346 0 334 0 l 208 0 q 197 0 197 12 l 197 28 q 197 38 208 46 q 221 54 221 63 q 221 72 218 81 l 172 228 l 135 172 z"},"u":{"x_min":0,"x_max":338,"ha":338,"o":"m 205 90 l 205 392 q 205 403 192 415 q 185 422 185 426 l 185 450 q 185 458 194 458 l 302 460 l 302 66 q 302 55 315 43 q 323 36 323 32 l 323 9 q 323 0 313 0 l 205 -2 l 205 36 q 152 -6 115 -6 q 77 -6 56 18 q 36 43 36 83 l 36 392 q 36 403 22 415 q 15 422 15 426 l 15 450 q 15 458 24 458 l 132 460 l 132 96 q 132 61 159 61 q 183 61 205 90 z"},"]":{"x_min":0,"x_max":233,"ha":233,"o":"m 188 -141 l 20 -141 q 12 -141 12 -133 l 12 -111 q 12 -104 20 -104 l 53 -104 q 74 -104 83 -98 q 91 -91 91 -72 l 91 679 q 91 702 82 711 q 72 720 48 720 l 22 720 q 12 720 12 728 l 12 751 q 12 759 21 759 l 188 759 z"},"U":{"x_min":0,"x_max":418,"ha":418,"o":"m 371 176 q 371 88 327 39 q 282 -10 210 -10 q 139 -10 93 39 q 47 87 47 167 l 47 669 q 47 694 28 707 q 16 715 16 727 l 16 748 q 16 759 28 759 l 181 759 q 191 759 191 749 l 191 727 q 191 715 179 707 q 160 694 160 669 l 160 161 q 160 60 228 60 q 301 60 301 179 l 301 669 q 301 694 283 707 q 270 715 270 727 l 270 748 q 270 759 283 759 l 392 759 q 402 759 402 749 l 402 727 q 402 715 390 707 q 371 694 371 669 z"},"o":{"x_min":0,"x_max":343,"ha":343,"o":"m 167 471 q 321 471 321 228 q 321 114 283 52 q 245 -10 173 -10 q 101 -10 61 51 q 22 111 22 231 q 22 356 63 413 q 104 471 167 471 z m 214 277 q 214 360 204 391 q 194 422 171 422 q 128 422 128 304 l 128 194 q 128 106 138 72 q 147 38 173 38 q 194 38 204 64 q 214 90 214 161 z"},"N":{"x_min":0,"x_max":423,"ha":423,"o":"m 304 349 l 304 669 q 304 694 286 707 q 273 715 273 727 l 273 748 q 273 759 286 759 l 396 759 q 407 759 407 749 l 407 727 q 407 715 395 707 q 375 693 375 669 l 375 12 q 375 -3 361 -3 l 340 -3 q 325 -3 319 12 l 117 544 l 117 91 q 117 65 136 53 q 149 44 149 33 l 149 11 q 149 0 136 0 l 26 0 q 16 0 16 10 l 16 33 q 16 44 28 53 q 47 66 47 91 l 47 669 q 47 694 28 707 q 16 715 16 727 l 16 748 q 16 759 28 759 l 132 759 q 143 759 147 757 q 151 754 155 744 z"},"+":{"x_min":0,"x_max":447,"ha":447,"o":"m 37 389 l 196 389 l 196 548 l 251 548 l 251 389 l 411 389 l 411 334 l 251 334 l 251 174 l 196 174 l 196 334 l 37 334 z"},"G":{"x_min":0,"x_max":420,"ha":420,"o":"m 247 316 l 370 316 q 382 316 385 314 q 389 311 389 302 q 389 298 387 285 q 385 253 385 232 l 385 96 q 385 82 392 75 q 398 70 398 62 l 398 44 q 398 34 386 26 q 374 17 335 3 q 297 -10 250 -10 q 29 -10 29 351 q 29 454 51 548 q 72 642 125 706 q 177 770 237 770 q 267 770 302 753 q 312 748 318 748 q 321 748 329 752 q 335 755 340 755 l 359 755 q 373 755 373 742 l 373 581 q 373 566 360 566 l 340 566 q 330 566 328 569 q 327 571 320 600 q 296 713 235 713 q 206 713 187 687 q 167 660 159 562 q 151 465 151 368 q 151 267 159 201 q 167 135 178 102 q 188 68 203 56 q 218 44 238 44 q 281 44 281 105 l 281 211 q 281 238 274 250 q 268 262 246 271 q 235 276 235 285 l 235 305 q 235 316 247 316 z"},"q":{"x_min":0,"x_max":343,"ha":343,"o":"m 211 27 q 173 -7 137 -7 q 87 -7 54 49 q 22 104 22 220 q 22 343 58 407 q 94 471 161 471 q 188 471 218 455 q 238 444 249 444 q 270 444 294 471 l 308 471 l 308 -84 q 308 -103 323 -115 q 332 -123 332 -127 l 332 -151 q 332 -160 325 -160 l 195 -160 q 187 -160 187 -151 l 187 -127 q 187 -123 193 -119 q 211 -109 211 -83 z m 211 398 q 192 417 179 417 q 148 417 137 375 q 127 332 127 262 q 127 139 137 99 q 147 60 175 60 q 193 60 211 73 z"},"d":{"x_min":0,"x_max":343,"ha":343,"o":"m 209 441 l 209 679 q 209 706 189 716 q 180 720 180 729 l 180 747 q 180 755 191 755 l 306 759 l 306 75 q 306 53 318 43 q 324 38 324 27 l 324 6 q 324 -3 315 -3 l 209 -3 l 209 43 q 170 -6 128 -6 q 22 -6 22 205 q 22 471 137 471 q 170 471 209 441 z m 209 393 q 189 409 172 409 q 140 409 133 361 q 126 314 126 255 l 126 168 q 126 56 167 56 q 190 56 209 86 z"},"1":{"x_min":0,"x_max":385,"ha":385,"o":"m 151 634 l 85 634 q 77 634 77 642 l 77 669 q 77 678 84 682 l 183 726 q 198 732 208 732 l 243 732 q 253 732 253 722 l 253 108 q 253 78 262 65 q 271 52 295 50 q 309 49 309 38 l 309 10 q 309 0 299 0 l 104 0 q 92 0 92 10 l 92 35 q 92 48 109 52 q 131 56 141 67 q 151 79 151 108 z"},"5":{"x_min":0,"x_max":385,"ha":385,"o":"m 69 717 l 240 717 q 269 717 279 739 q 283 750 293 750 l 313 750 q 319 750 319 744 l 319 629 l 118 629 l 107 429 q 147 446 179 446 q 236 446 274 418 q 312 390 333 342 q 354 294 354 226 q 354 107 304 47 q 254 -14 169 -14 q 101 -14 60 21 q 20 55 20 106 q 20 135 38 157 q 56 179 83 179 q 105 179 120 164 q 135 148 135 124 q 135 93 107 78 q 98 72 98 68 q 98 59 117 46 q 136 34 162 34 q 208 34 226 75 q 245 116 245 207 q 245 379 146 379 q 108 379 72 354 l 51 373 z"}}}
